Coordinates
version=1
nRows=12
nColumns=46
inDegrees=yes

Units are S.I. units (second, meters, Newtons, ...)
Angles are in degrees.

endheader
time	pelvis_tilt	pelvis_list	pelvis_rotation	pelvis_tx	pelvis_ty	pelvis_tz	bb_angle	bb_tx	bb_ty	bb_tz	hip_flexion_r	hip_adduction_r	hip_rotation_r	knee_angle_r	knee_angle_r_beta	ankle_angle_r	subtalar_angle_r	mtp_angle_r	crank_angle_r	hip_flexion_l	hip_adduction_l	hip_rotation_l	knee_angle_l	knee_angle_l_beta	ankle_angle_l	subtalar_angle_l	mtp_angle_l	crank_angle_l	lumbar_extension	lumbar_bending	lumbar_rotation	arm_flex_r	arm_add_r	arm_rot_r	elbow_flex_r	pro_sup_r	wrist_flex_r	wrist_dev_r	arm_flex_l	arm_add_l	arm_rot_l	elbow_flex_l	pro_sup_l	wrist_flex_l	wrist_dev_l
      0.00000000	    -28.43787207	     -0.68753455	     -1.93185399	      0.13829876	      1.03414873	     -0.21105856	      0.00000000	      0.50000000	      0.00000000	      0.25000000	     91.02385481	     -1.77473774	      2.03340851	     77.41411554	      1.35113120	     -2.50889893	     -8.34684694	      0.00000000	      0.00000000	     64.91502682	     -5.24195829	      3.81602762	     78.89895175	      1.37704648	     -4.45132378	    -12.35549958	      0.00000000	      0.00000000	    -36.84464244	     -0.76398885	      1.61652241	     86.24003276	     -5.37943259	     34.20806127	     29.99643512	     38.04524916	      0.00000000	      0.00000000	     85.37719935	     -7.94412204	     33.15051927	     31.45112347	     37.51684216	      0.00000000	      0.00000000
      0.00500000	    -28.41587081	     -0.62776348	     -1.93304544	      0.13832861	      1.03416286	     -0.21104140	      0.00000000	      0.50000000	      0.00000000	      0.25000000	     91.02068957	     -1.78667216	      2.11742760	     77.45122904	      1.35177896	     -2.34178874	     -8.04937841	      0.00000000	      0.00000000	     64.85958457	     -5.22022068	      3.77627135	     78.87445986	      1.37661902	     -4.22965013	    -12.01683341	      0.00000000	      0.00000000	    -36.84919387	     -0.83079410	      1.52449328	     86.45678554	     -5.44284878	     35.39414276	     29.44446318	     38.34000897	      0.00000000	      0.00000000	     85.55224546	     -8.16726725	     34.20214073	     31.14838276	     37.89318848	      0.00000000	      0.00000000
      0.01000000	    -28.41032165	     -0.62513066	     -1.92999468	      0.13833472	      1.03416194	     -0.21107507	      0.00000000	      0.50000000	      0.00000000	      0.25000000	     91.02399104	     -1.79128371	      2.12242922	     77.46779748	      1.35206813	     -2.33668163	     -8.04851151	      0.00000000	      0.00000000	     64.84496157	     -5.21381697	      3.77042028	     78.85833837	      1.37633765	     -4.24983863	    -12.04494563	      0.00000000	      0.00000000	    -36.85494995	     -0.84079609	      1.51741119	     86.43111645	     -5.27260978	     34.67206023	     29.31171847	     38.60396285	      0.00000000	      0.00000000	     85.54055665	     -7.95757701	     33.47647892	     30.99386549	     38.18676228	      0.00000000	      0.00000000
      0.01500000	    -28.36217977	     -0.73305488	     -1.97317642	      0.13845028	      1.03435536	     -0.21098710	      0.00000000	      0.50000000	      0.00000000	      0.25000000	     90.92663014	     -1.72343702	      2.01867397	     77.43689705	      1.35152882	     -2.30816680	     -8.05021768	      0.00000000	      0.00000000	     64.77322059	     -5.32713885	      3.85809761	     78.84859181	      1.37616754	     -4.13948961	    -11.90656444	      0.00000000	      0.00000000	    -36.92383835	     -0.77052156	      1.62885003	     86.45084751	     -5.21753876	     34.44806063	     29.18337500	     38.89054969	      0.00000000	      0.00000000	     85.55956191	     -7.87827215	     33.27397767	     30.87161248	     38.50628744	      0.00000000	      0.00000000
      0.02000000	    -28.39365734	     -0.73518760	     -1.97772449	      0.13838984	      1.03448266	     -0.21089393	      0.00000000	      0.50000000	      0.00000000	      0.25000000	     90.96741625	     -1.77648871	      1.91776994	     77.42752203	      1.35136519	     -2.32172125	     -8.10515378	      0.00000000	      0.00000000	     64.80929416	     -5.38245367	      3.81296734	     78.82867015	      1.37581984	     -4.22524395	    -11.88890455	      0.00000000	      0.00000000	    -36.87809196	     -0.75149892	      1.60405203	     86.43867479	     -4.91845720	     33.80011193	     29.33746965	     37.78087427	      0.00000000	      0.00000000	     85.39422679	     -7.75649752	     32.61865147	     31.12723417	     37.38436387	      0.00000000	      0.00000000
      0.02500000	    -28.41468332	     -0.69159146	     -1.95675092	      0.13834225	      1.03443375	     -0.21094275	      0.00000000	      0.50000000	      0.00000000	      0.25000000	     91.02517317	     -1.74539176	      2.06532477	     77.49152559	      1.35248226	     -2.26640242	     -7.99205502	      0.00000000	      0.00000000	     64.80163493	     -5.30566475	      3.81009936	     78.77848814	      1.37494400	     -4.26034246	    -11.98394025	      0.00000000	      0.00000000	    -36.84060885	     -0.81476143	      1.55045859	     86.43662764	     -5.03001784	     34.20333469	     29.06513428	     38.06390644	      0.00000000	      0.00000000	     85.50493096	     -7.81588724	     33.01764124	     30.94228631	     37.70373825	      0.00000000	      0.00000000
      0.03000000	    -28.40415580	     -0.72120610	     -1.97170806	      0.13829599	      1.03446707	     -0.21093265	      0.00000000	      0.50000000	      0.00000000	      0.25000000	     91.02798068	     -1.73635741	      2.03134724	     77.50318856	      1.35268582	     -2.35335781	     -7.88978397	      0.00000000	      0.00000000	     64.79205778	     -5.34390572	      3.85230006	     78.76664551	      1.37473730	     -4.26009727	    -11.78046643	      0.00000000	      0.00000000	    -36.89644126	     -0.80727732	      1.58392461	     86.47279056	     -5.26420483	     34.90781697	     29.34096262	     38.45834581	      0.00000000	      0.00000000	     85.57707786	     -7.98653531	     33.72358846	     31.09622191	     38.10396570	      0.00000000	      0.00000000
      0.03500000	    -28.55441433	     -0.80833334	     -1.93367382	      0.13820359	      1.03427912	     -0.21109272	      0.00000000	      0.50000000	      0.00000000	      0.25000000	     91.16044795	     -1.74952020	      1.91729481	     77.45332001	      1.35181545	     -2.60798624	     -8.53353491	      0.00000000	      0.00000000	     64.98500506	     -5.32134412	      3.91434000	     78.73600443	      1.37420252	     -4.74049325	    -12.57239664	      0.00000000	      0.00000000	    -36.73142977	     -0.67281418	      1.63854831	     86.19912621	     -5.28598370	     33.67835574	     29.89801717	     38.92143354	      0.00000000	      0.00000000	     85.19173270	     -7.90321778	     32.44746174	     31.67597111	     38.61816492	      0.00000000	      0.00000000
      0.04000000	    -28.41253662	     -0.71866198	     -1.94683407	      0.13829865	      1.03443118	     -0.21103373	      0.00000000	      0.50000000	      0.00000000	      0.25000000	     91.05175865	     -1.75336217	      2.05090527	     77.54594488	      1.35343206	     -2.25555652	     -8.02926289	      0.00000000	      0.00000000	     64.80043501	     -5.31915540	      3.82239587	     78.74366861	      1.37433628	     -4.30814276	    -11.97755374	      0.00000000	      0.00000000	    -36.86664730	     -0.79115759	      1.57120145	     86.50332441	     -5.54043430	     35.56772568	     29.24134231	     39.21472570	      0.00000000	      0.00000000	     85.58923444	     -8.19635284	     34.18153488	     31.02468580	     38.88406744	      0.00000000	      0.00000000
      0.04500000	    -28.42642722	     -0.73191554	     -1.94670308	      0.13828091	      1.03441298	     -0.21104385	      0.00000000	      0.50000000	      0.00000000	      0.25000000	     91.06830888	     -1.74793114	      2.04953143	     77.55852339	      1.35365160	     -2.22660827	     -8.02365263	      0.00000000	      0.00000000	     64.81728483	     -5.33334572	      3.82672905	     78.73030870	      1.37410311	     -4.32336487	    -11.95108306	      0.00000000	      0.00000000	    -36.85149056	     -0.78981290	      1.58346907	     86.48521023	     -5.56786122	     35.59429155	     29.29651122	     38.94017623	      0.00000000	      0.00000000	     85.58211290	     -8.18175639	     34.17217622	     31.06483996	     38.62216459	      0.00000000	      0.00000000
      0.05000000	    -28.43198566	     -0.71362787	     -1.96182313	      0.13827192	      1.03439168	     -0.21102769	      0.00000000	      0.50000000	      0.00000000	      0.25000000	     91.09248472	     -1.73261806	      2.06811007	     77.57993437	      1.35402529	     -2.22853886	     -8.01929839	      0.00000000	      0.00000000	     64.80958257	     -5.33539430	      3.80445900	     78.71617226	      1.37385638	     -4.30861940	    -11.95067763	      0.00000000	      0.00000000	    -36.83356435	     -0.82104502	      1.60543396	     86.41307313	     -5.25323497	     34.30848258	     29.13079341	     39.17861619	      0.00000000	      0.00000000	     85.57274586	     -7.80017549	     33.15692604	     30.71784682	     38.92291140	      0.00000000	      0.00000000
      0.05500000	    -28.44193359	     -0.70859263	     -1.99370259	      0.13826498	      1.03436447	     -0.21098625	      0.00000000	      0.50000000	      0.00000000	      0.25000000	     91.11308939	     -1.69781387	      2.08668779	     77.59489871	      1.35428647	     -2.17482022	     -7.95332437	      0.00000000	      0.00000000	     64.81391229	     -5.37376043	      3.77726828	     78.70809767	      1.37371545	     -4.26448645	    -11.85657828	      0.00000000	      0.00000000	    -36.81396737	     -0.84232329	      1.61289537	     86.41908285	     -5.16867004	     34.16306327	     29.03012700	     39.08629404	      0.00000000	      0.00000000	     85.57380551	     -7.78370568	     33.01657937	     30.71174742	     38.83925418	      0.00000000	      0.00000000
